{
	"asset":{
		"generator":"Khronos glTF Blender I/O v4.5.47",
		"version":"2.0"
	},
	"scene":0,
	"scenes":[
		{
			"name":"Scene",
			"nodes":[
				19
			]
		}
	],
	"nodes":[
		{
			"name":"KneeRight",
			"rotation":[
				0.0066618346609175205,
				1.2054380022163969e-05,
				-0.0012425342574715614,
				0.9999770522117615
			],
			"scale":[
				1,
				1.0000001192092896,
				1
			],
			"translation":[
				-1.0230507996311644e-08,
				0.45203709602355957,
				-4.883986548520625e-10
			]
		},
		{
			"children":[
				0
			],
			"name":"LegRight",
			"rotation":[
				0.008348803967237473,
				0.004842021968215704,
				-0.3711135685443878,
				0.9285373687744141
			],
			"translation":[
				8.228880687966011e-09,
				0.13059847056865692,
				-9.313225746154785e-10
			]
		},
		{
			"children":[
				1
			],
			"name":"UpperLegRight",
			"rotation":[
				-0.004319645464420319,
				0.009572223760187626,
				-0.9277363419532776,
				0.3730884790420532
			],
			"scale":[
				1.000000238418579,
				1,
				1
			],
			"translation":[
				0,
				0.07620340585708618,
				0
			]
		},
		{
			"name":"AnkleLeft",
			"rotation":[
				0.014336846768856049,
				-0.7475725412368774,
				0.663865864276886,
				0.014556576497852802
			],
			"scale":[
				0.9999999403953552,
				1.000000238418579,
				1.0000001192092896
			],
			"translation":[
				-3.665263648144901e-09,
				0.4600200653076172,
				1.964508555829525e-10
			]
		},
		{
			"children":[
				3
			],
			"name":"KneeLeft",
			"rotation":[
				0.0008569727651774883,
				4.475221430766396e-05,
				0.014131133444607258,
				0.9998998045921326
			],
			"scale":[
				1,
				1,
				0.9999999403953552
			],
			"translation":[
				4.540197551250458e-09,
				0.4523193836212158,
				-5.820766091346741e-10
			]
		},
		{
			"children":[
				4
			],
			"name":"LegLeft",
			"rotation":[
				0.003676441963762045,
				-0.0006538418238051236,
				0.33850282430648804,
				0.9409579634666443
			],
			"scale":[
				0.9999999403953552,
				1,
				0.9999999403953552
			],
			"translation":[
				1.3838871382176876e-08,
				0.12434817850589752,
				-1.6298145055770874e-09
			]
		},
		{
			"children":[
				5
			],
			"name":"UpperLegLeft",
			"rotation":[
				0.01915132999420166,
				0.0015817006351426244,
				0.9355216026306152,
				0.35274654626846313
			],
			"scale":[
				0.9999996423721313,
				0.9999999403953552,
				1
			],
			"translation":[
				0,
				0.07620340585708618,
				0
			]
		},
		{
			"name":"Neck",
			"rotation":[
				0.006419658195227385,
				-5.148611671756953e-05,
				0.0014106904854997993,
				0.9999784231185913
			],
			"scale":[
				0.9999999403953552,
				1,
				1
			],
			"translation":[
				-3.9108272176235914e-11,
				0.558710515499115,
				1.0188188070969773e-09
			]
		},
		{
			"name":"WristLeft",
			"rotation":[
				0.008144267834722996,
				8.621193410363048e-05,
				-0.03187534213066101,
				0.9994587302207947
			],
			"scale":[
				0.9999998807907104,
				0.9999999403953552,
				0.9999998211860657
			],
			"translation":[
				9.042923920787871e-08,
				0.37406647205352783,
				2.3457687348127365e-08
			]
		},
		{
			"children":[
				8
			],
			"name":"ElbowLeft",
			"rotation":[
				-0.0038657209370285273,
				1.877086833701469e-05,
				0.006303625181317329,
				0.9999726414680481
			],
			"scale":[
				1,
				1.0000001192092896,
				1
			],
			"translation":[
				1.5086698113009334e-07,
				0.38177579641342163,
				0
			]
		},
		{
			"children":[
				9
			],
			"name":"ShoulderLeft",
			"rotation":[
				-0.013886255212128162,
				-0.0007281774305738509,
				-0.05113908275961876,
				0.9985947012901306
			],
			"scale":[
				1.0000001192092896,
				1,
				0.9999999403953552
			],
			"translation":[
				4.0981831261888146e-08,
				0.2004908323287964,
				-1.7462298274040222e-10
			]
		},
		{
			"children":[
				10
			],
			"name":"UpperArmLeft",
			"rotation":[
				0.039173949509859085,
				-0.01929781772196293,
				0.7411918640136719,
				0.6698713302612305
			],
			"translation":[
				-3.9108272176235914e-11,
				0.558710515499115,
				1.0188188070969773e-09
			]
		},
		{
			"name":"WristRight",
			"rotation":[
				0.07344494014978409,
				0.008809050545096397,
				0.0052134376019239426,
				0.9972467422485352
			],
			"scale":[
				1,
				1,
				0.9999999403953552
			],
			"translation":[
				-1.914886524900794e-07,
				0.4182964861392975,
				4.190951585769653e-09
			]
		},
		{
			"children":[
				12
			],
			"name":"ElbowRight",
			"rotation":[
				-0.0035347412340343,
				-0.002219962887465954,
				0.015127750113606453,
				0.999876856803894
			],
			"scale":[
				0.9999999403953552,
				0.9999999403953552,
				1
			],
			"translation":[
				-3.479362931102514e-08,
				0.34974774718284607,
				-3.14321368932724e-09
			]
		},
		{
			"children":[
				13
			],
			"name":"ShoulderRight",
			"rotation":[
				-0.03215819597244263,
				0.0008144419407472014,
				0.019141875207424164,
				0.999299168586731
			],
			"scale":[
				1,
				0.9999999403953552,
				1
			],
			"translation":[
				-1.0695657692849636e-07,
				0.20418930053710938,
				-2.3283064365386963e-09
			]
		},
		{
			"children":[
				14
			],
			"name":"UpperArmRight",
			"rotation":[
				0.04785067215561867,
				0.008287192322313786,
				-0.7409806847572327,
				0.6697681546211243
			],
			"scale":[
				1,
				0.9999999403953552,
				0.9999999403953552
			],
			"translation":[
				-3.9108272176235914e-11,
				0.558710515499115,
				1.0188188070969773e-09
			]
		},
		{
			"children":[
				7,
				11,
				15
			],
			"name":"Spine",
			"rotation":[
				-0.004730698652565479,
				-0.0003991632256656885,
				0.00021442827710416168,
				0.9999886751174927
			],
			"scale":[
				1,
				0.9999999403953552,
				1
			],
			"translation":[
				0,
				0.07620340585708618,
				0
			]
		},
		{
			"children":[
				2,
				6,
				16
			],
			"name":"Pelvis",
			"translation":[
				0,
				0.9572973847389221,
				0
			]
		},
		{
			"mesh":0,
			"name":"Cube",
			"skin":0
		},
		{
			"children":[
				18,
				17
			],
			"name":"Armature"
		}
	],
	"animations":[
		{
			"channels":[
				{
					"sampler":0,
					"target":{
						"node":17,
						"path":"translation"
					}
				},
				{
					"sampler":1,
					"target":{
						"node":17,
						"path":"rotation"
					}
				},
				{
					"sampler":2,
					"target":{
						"node":17,
						"path":"scale"
					}
				},
				{
					"sampler":3,
					"target":{
						"node":2,
						"path":"translation"
					}
				},
				{
					"sampler":4,
					"target":{
						"node":2,
						"path":"rotation"
					}
				},
				{
					"sampler":5,
					"target":{
						"node":2,
						"path":"scale"
					}
				},
				{
					"sampler":6,
					"target":{
						"node":1,
						"path":"translation"
					}
				},
				{
					"sampler":7,
					"target":{
						"node":1,
						"path":"rotation"
					}
				},
				{
					"sampler":8,
					"target":{
						"node":1,
						"path":"scale"
					}
				},
				{
					"sampler":9,
					"target":{
						"node":0,
						"path":"translation"
					}
				},
				{
					"sampler":10,
					"target":{
						"node":0,
						"path":"rotation"
					}
				},
				{
					"sampler":11,
					"target":{
						"node":0,
						"path":"scale"
					}
				},
				{
					"sampler":12,
					"target":{
						"node":6,
						"path":"translation"
					}
				},
				{
					"sampler":13,
					"target":{
						"node":6,
						"path":"rotation"
					}
				},
				{
					"sampler":14,
					"target":{
						"node":6,
						"path":"scale"
					}
				},
				{
					"sampler":15,
					"target":{
						"node":5,
						"path":"translation"
					}
				},
				{
					"sampler":16,
					"target":{
						"node":5,
						"path":"rotation"
					}
				},
				{
					"sampler":17,
					"target":{
						"node":5,
						"path":"scale"
					}
				},
				{
					"sampler":18,
					"target":{
						"node":4,
						"path":"translation"
					}
				},
				{
					"sampler":19,
					"target":{
						"node":4,
						"path":"rotation"
					}
				},
				{
					"sampler":20,
					"target":{
						"node":4,
						"path":"scale"
					}
				},
				{
					"sampler":21,
					"target":{
						"node":3,
						"path":"translation"
					}
				},
				{
					"sampler":22,
					"target":{
						"node":3,
						"path":"rotation"
					}
				},
				{
					"sampler":23,
					"target":{
						"node":3,
						"path":"scale"
					}
				},
				{
					"sampler":24,
					"target":{
						"node":16,
						"path":"translation"
					}
				},
				{
					"sampler":25,
					"target":{
						"node":16,
						"path":"rotation"
					}
				},
				{
					"sampler":26,
					"target":{
						"node":16,
						"path":"scale"
					}
				},
				{
					"sampler":27,
					"target":{
						"node":7,
						"path":"translation"
					}
				},
				{
					"sampler":28,
					"target":{
						"node":7,
						"path":"rotation"
					}
				},
				{
					"sampler":29,
					"target":{
						"node":7,
						"path":"scale"
					}
				},
				{
					"sampler":30,
					"target":{
						"node":11,
						"path":"translation"
					}
				},
				{
					"sampler":31,
					"target":{
						"node":11,
						"path":"rotation"
					}
				},
				{
					"sampler":32,
					"target":{
						"node":11,
						"path":"scale"
					}
				},
				{
					"sampler":33,
					"target":{
						"node":10,
						"path":"translation"
					}
				},
				{
					"sampler":34,
					"target":{
						"node":10,
						"path":"rotation"
					}
				},
				{
					"sampler":35,
					"target":{
						"node":10,
						"path":"scale"
					}
				},
				{
					"sampler":36,
					"target":{
						"node":9,
						"path":"translation"
					}
				},
				{
					"sampler":37,
					"target":{
						"node":9,
						"path":"rotation"
					}
				},
				{
					"sampler":38,
					"target":{
						"node":9,
						"path":"scale"
					}
				},
				{
					"sampler":39,
					"target":{
						"node":8,
						"path":"translation"
					}
				},
				{
					"sampler":40,
					"target":{
						"node":8,
						"path":"rotation"
					}
				},
				{
					"sampler":41,
					"target":{
						"node":8,
						"path":"scale"
					}
				},
				{
					"sampler":42,
					"target":{
						"node":15,
						"path":"translation"
					}
				},
				{
					"sampler":43,
					"target":{
						"node":15,
						"path":"rotation"
					}
				},
				{
					"sampler":44,
					"target":{
						"node":15,
						"path":"scale"
					}
				},
				{
					"sampler":45,
					"target":{
						"node":14,
						"path":"translation"
					}
				},
				{
					"sampler":46,
					"target":{
						"node":14,
						"path":"rotation"
					}
				},
				{
					"sampler":47,
					"target":{
						"node":14,
						"path":"scale"
					}
				},
				{
					"sampler":48,
					"target":{
						"node":13,
						"path":"translation"
					}
				},
				{
					"sampler":49,
					"target":{
						"node":13,
						"path":"rotation"
					}
				},
				{
					"sampler":50,
					"target":{
						"node":13,
						"path":"scale"
					}
				},
				{
					"sampler":51,
					"target":{
						"node":12,
						"path":"translation"
					}
				},
				{
					"sampler":52,
					"target":{
						"node":12,
						"path":"rotation"
					}
				},
				{
					"sampler":53,
					"target":{
						"node":12,
						"path":"scale"
					}
				},
				{
					"sampler":54,
					"target":{
						"node":19,
						"path":"translation"
					}
				}
			],
			"name":"Jumping",
			"samplers":[
				{
					"input":9,
					"interpolation":"STEP",
					"output":10
				},
				{
					"input":9,
					"interpolation":"STEP",
					"output":11
				},
				{
					"input":9,
					"interpolation":"STEP",
					"output":12
				},
				{
					"input":9,
					"interpolation":"STEP",
					"output":13
				},
				{
					"input":9,
					"interpolation":"STEP",
					"output":14
				},
				{
					"input":9,
					"interpolation":"STEP",
					"output":15
				},
				{
					"input":9,
					"interpolation":"STEP",
					"output":16
				},
				{
					"input":17,
					"interpolation":"LINEAR",
					"output":18
				},
				{
					"input":9,
					"interpolation":"STEP",
					"output":19
				},
				{
					"input":9,
					"interpolation":"STEP",
					"output":20
				},
				{
					"input":17,
					"interpolation":"LINEAR",
					"output":21
				},
				{
					"input":9,
					"interpolation":"STEP",
					"output":22
				},
				{
					"input":9,
					"interpolation":"STEP",
					"output":23
				},
				{
					"input":9,
					"interpolation":"STEP",
					"output":24
				},
				{
					"input":9,
					"interpolation":"STEP",
					"output":25
				},
				{
					"input":9,
					"interpolation":"STEP",
					"output":26
				},
				{
					"input":17,
					"interpolation":"LINEAR",
					"output":27
				},
				{
					"input":9,
					"interpolation":"STEP",
					"output":28
				},
				{
					"input":9,
					"interpolation":"STEP",
					"output":29
				},
				{
					"input":17,
					"interpolation":"LINEAR",
					"output":30
				},
				{
					"input":9,
					"interpolation":"STEP",
					"output":31
				},
				{
					"input":9,
					"interpolation":"STEP",
					"output":32
				},
				{
					"input":17,
					"interpolation":"LINEAR",
					"output":33
				},
				{
					"input":9,
					"interpolation":"STEP",
					"output":34
				},
				{
					"input":9,
					"interpolation":"STEP",
					"output":35
				},
				{
					"input":17,
					"interpolation":"LINEAR",
					"output":36
				},
				{
					"input":9,
					"interpolation":"STEP",
					"output":37
				},
				{
					"input":9,
					"interpolation":"STEP",
					"output":38
				},
				{
					"input":17,
					"interpolation":"LINEAR",
					"output":39
				},
				{
					"input":9,
					"interpolation":"STEP",
					"output":40
				},
				{
					"input":9,
					"interpolation":"STEP",
					"output":41
				},
				{
					"input":17,
					"interpolation":"LINEAR",
					"output":42
				},
				{
					"input":9,
					"interpolation":"STEP",
					"output":43
				},
				{
					"input":9,
					"interpolation":"STEP",
					"output":44
				},
				{
					"input":17,
					"interpolation":"LINEAR",
					"output":45
				},
				{
					"input":9,
					"interpolation":"STEP",
					"output":46
				},
				{
					"input":9,
					"interpolation":"STEP",
					"output":47
				},
				{
					"input":17,
					"interpolation":"LINEAR",
					"output":48
				},
				{
					"input":9,
					"interpolation":"STEP",
					"output":49
				},
				{
					"input":9,
					"interpolation":"STEP",
					"output":50
				},
				{
					"input":17,
					"interpolation":"LINEAR",
					"output":51
				},
				{
					"input":9,
					"interpolation":"STEP",
					"output":52
				},
				{
					"input":9,
					"interpolation":"STEP",
					"output":53
				},
				{
					"input":17,
					"interpolation":"LINEAR",
					"output":54
				},
				{
					"input":9,
					"interpolation":"STEP",
					"output":12
				},
				{
					"input":9,
					"interpolation":"STEP",
					"output":55
				},
				{
					"input":17,
					"interpolation":"LINEAR",
					"output":56
				},
				{
					"input":9,
					"interpolation":"STEP",
					"output":57
				},
				{
					"input":9,
					"interpolation":"STEP",
					"output":58
				},
				{
					"input":17,
					"interpolation":"LINEAR",
					"output":59
				},
				{
					"input":9,
					"interpolation":"STEP",
					"output":60
				},
				{
					"input":9,
					"interpolation":"STEP",
					"output":61
				},
				{
					"input":17,
					"interpolation":"LINEAR",
					"output":62
				},
				{
					"input":9,
					"interpolation":"STEP",
					"output":63
				},
				{
					"input":17,
					"interpolation":"LINEAR",
					"output":64
				}
			]
		},
		{
			"channels":[
				{
					"sampler":0,
					"target":{
						"node":17,
						"path":"translation"
					}
				},
				{
					"sampler":1,
					"target":{
						"node":17,
						"path":"rotation"
					}
				},
				{
					"sampler":2,
					"target":{
						"node":17,
						"path":"scale"
					}
				},
				{
					"sampler":3,
					"target":{
						"node":2,
						"path":"translation"
					}
				},
				{
					"sampler":4,
					"target":{
						"node":2,
						"path":"rotation"
					}
				},
				{
					"sampler":5,
					"target":{
						"node":2,
						"path":"scale"
					}
				},
				{
					"sampler":6,
					"target":{
						"node":1,
						"path":"translation"
					}
				},
				{
					"sampler":7,
					"target":{
						"node":1,
						"path":"rotation"
					}
				},
				{
					"sampler":8,
					"target":{
						"node":1,
						"path":"scale"
					}
				},
				{
					"sampler":9,
					"target":{
						"node":0,
						"path":"translation"
					}
				},
				{
					"sampler":10,
					"target":{
						"node":0,
						"path":"rotation"
					}
				},
				{
					"sampler":11,
					"target":{
						"node":0,
						"path":"scale"
					}
				},
				{
					"sampler":12,
					"target":{
						"node":6,
						"path":"translation"
					}
				},
				{
					"sampler":13,
					"target":{
						"node":6,
						"path":"rotation"
					}
				},
				{
					"sampler":14,
					"target":{
						"node":6,
						"path":"scale"
					}
				},
				{
					"sampler":15,
					"target":{
						"node":5,
						"path":"translation"
					}
				},
				{
					"sampler":16,
					"target":{
						"node":5,
						"path":"rotation"
					}
				},
				{
					"sampler":17,
					"target":{
						"node":5,
						"path":"scale"
					}
				},
				{
					"sampler":18,
					"target":{
						"node":4,
						"path":"translation"
					}
				},
				{
					"sampler":19,
					"target":{
						"node":4,
						"path":"rotation"
					}
				},
				{
					"sampler":20,
					"target":{
						"node":4,
						"path":"scale"
					}
				},
				{
					"sampler":21,
					"target":{
						"node":3,
						"path":"translation"
					}
				},
				{
					"sampler":22,
					"target":{
						"node":3,
						"path":"rotation"
					}
				},
				{
					"sampler":23,
					"target":{
						"node":3,
						"path":"scale"
					}
				},
				{
					"sampler":24,
					"target":{
						"node":16,
						"path":"translation"
					}
				},
				{
					"sampler":25,
					"target":{
						"node":16,
						"path":"rotation"
					}
				},
				{
					"sampler":26,
					"target":{
						"node":16,
						"path":"scale"
					}
				},
				{
					"sampler":27,
					"target":{
						"node":7,
						"path":"translation"
					}
				},
				{
					"sampler":28,
					"target":{
						"node":7,
						"path":"rotation"
					}
				},
				{
					"sampler":29,
					"target":{
						"node":7,
						"path":"scale"
					}
				},
				{
					"sampler":30,
					"target":{
						"node":11,
						"path":"translation"
					}
				},
				{
					"sampler":31,
					"target":{
						"node":11,
						"path":"rotation"
					}
				},
				{
					"sampler":32,
					"target":{
						"node":11,
						"path":"scale"
					}
				},
				{
					"sampler":33,
					"target":{
						"node":10,
						"path":"translation"
					}
				},
				{
					"sampler":34,
					"target":{
						"node":10,
						"path":"rotation"
					}
				},
				{
					"sampler":35,
					"target":{
						"node":10,
						"path":"scale"
					}
				},
				{
					"sampler":36,
					"target":{
						"node":9,
						"path":"translation"
					}
				},
				{
					"sampler":37,
					"target":{
						"node":9,
						"path":"rotation"
					}
				},
				{
					"sampler":38,
					"target":{
						"node":9,
						"path":"scale"
					}
				},
				{
					"sampler":39,
					"target":{
						"node":8,
						"path":"translation"
					}
				},
				{
					"sampler":40,
					"target":{
						"node":8,
						"path":"rotation"
					}
				},
				{
					"sampler":41,
					"target":{
						"node":8,
						"path":"scale"
					}
				},
				{
					"sampler":42,
					"target":{
						"node":15,
						"path":"translation"
					}
				},
				{
					"sampler":43,
					"target":{
						"node":15,
						"path":"rotation"
					}
				},
				{
					"sampler":44,
					"target":{
						"node":15,
						"path":"scale"
					}
				},
				{
					"sampler":45,
					"target":{
						"node":14,
						"path":"translation"
					}
				},
				{
					"sampler":46,
					"target":{
						"node":14,
						"path":"rotation"
					}
				},
				{
					"sampler":47,
					"target":{
						"node":14,
						"path":"scale"
					}
				},
				{
					"sampler":48,
					"target":{
						"node":13,
						"path":"translation"
					}
				},
				{
					"sampler":49,
					"target":{
						"node":13,
						"path":"rotation"
					}
				},
				{
					"sampler":50,
					"target":{
						"node":13,
						"path":"scale"
					}
				},
				{
					"sampler":51,
					"target":{
						"node":12,
						"path":"translation"
					}
				},
				{
					"sampler":52,
					"target":{
						"node":12,
						"path":"rotation"
					}
				},
				{
					"sampler":53,
					"target":{
						"node":12,
						"path":"scale"
					}
				}
			],
			"name":"Walking",
			"samplers":[
				{
					"input":65,
					"interpolation":"STEP",
					"output":66
				},
				{
					"input":65,
					"interpolation":"STEP",
					"output":67
				},
				{
					"input":65,
					"interpolation":"STEP",
					"output":12
				},
				{
					"input":65,
					"interpolation":"STEP",
					"output":68
				},
				{
					"input":65,
					"interpolation":"STEP",
					"output":69
				},
				{
					"input":65,
					"interpolation":"STEP",
					"output":15
				},
				{
					"input":65,
					"interpolation":"STEP",
					"output":70
				},
				{
					"input":71,
					"interpolation":"LINEAR",
					"output":72
				},
				{
					"input":65,
					"interpolation":"STEP",
					"output":73
				},
				{
					"input":65,
					"interpolation":"STEP",
					"output":74
				},
				{
					"input":71,
					"interpolation":"LINEAR",
					"output":75
				},
				{
					"input":65,
					"interpolation":"STEP",
					"output":76
				},
				{
					"input":65,
					"interpolation":"STEP",
					"output":77
				},
				{
					"input":65,
					"interpolation":"STEP",
					"output":78
				},
				{
					"input":65,
					"interpolation":"STEP",
					"output":79
				},
				{
					"input":65,
					"interpolation":"STEP",
					"output":80
				},
				{
					"input":71,
					"interpolation":"LINEAR",
					"output":81
				},
				{
					"input":65,
					"interpolation":"STEP",
					"output":82
				},
				{
					"input":65,
					"interpolation":"STEP",
					"output":83
				},
				{
					"input":71,
					"interpolation":"LINEAR",
					"output":84
				},
				{
					"input":65,
					"interpolation":"STEP",
					"output":85
				},
				{
					"input":65,
					"interpolation":"STEP",
					"output":86
				},
				{
					"input":71,
					"interpolation":"LINEAR",
					"output":87
				},
				{
					"input":65,
					"interpolation":"STEP",
					"output":88
				},
				{
					"input":65,
					"interpolation":"STEP",
					"output":89
				},
				{
					"input":71,
					"interpolation":"LINEAR",
					"output":90
				},
				{
					"input":65,
					"interpolation":"STEP",
					"output":91
				},
				{
					"input":65,
					"interpolation":"STEP",
					"output":92
				},
				{
					"input":71,
					"interpolation":"LINEAR",
					"output":93
				},
				{
					"input":65,
					"interpolation":"STEP",
					"output":94
				},
				{
					"input":65,
					"interpolation":"STEP",
					"output":95
				},
				{
					"input":71,
					"interpolation":"LINEAR",
					"output":96
				},
				{
					"input":65,
					"interpolation":"STEP",
					"output":97
				},
				{
					"input":65,
					"interpolation":"STEP",
					"output":98
				},
				{
					"input":71,
					"interpolation":"LINEAR",
					"output":99
				},
				{
					"input":65,
					"interpolation":"STEP",
					"output":100
				},
				{
					"input":65,
					"interpolation":"STEP",
					"output":101
				},
				{
					"input":71,
					"interpolation":"LINEAR",
					"output":102
				},
				{
					"input":65,
					"interpolation":"STEP",
					"output":103
				},
				{
					"input":65,
					"interpolation":"STEP",
					"output":104
				},
				{
					"input":71,
					"interpolation":"LINEAR",
					"output":105
				},
				{
					"input":65,
					"interpolation":"STEP",
					"output":106
				},
				{
					"input":65,
					"interpolation":"STEP",
					"output":107
				},
				{
					"input":71,
					"interpolation":"LINEAR",
					"output":108
				},
				{
					"input":65,
					"interpolation":"STEP",
					"output":109
				},
				{
					"input":65,
					"interpolation":"STEP",
					"output":110
				},
				{
					"input":71,
					"interpolation":"LINEAR",
					"output":111
				},
				{
					"input":65,
					"interpolation":"STEP",
					"output":112
				},
				{
					"input":65,
					"interpolation":"STEP",
					"output":113
				},
				{
					"input":71,
					"interpolation":"LINEAR",
					"output":114
				},
				{
					"input":65,
					"interpolation":"STEP",
					"output":115
				},
				{
					"input":65,
					"interpolation":"STEP",
					"output":116
				},
				{
					"input":71,
					"interpolation":"LINEAR",
					"output":117
				},
				{
					"input":65,
					"interpolation":"STEP",
					"output":118
				}
			]
		},
		{
			"channels":[
				{
					"sampler":0,
					"target":{
						"node":17,
						"path":"translation"
					}
				},
				{
					"sampler":1,
					"target":{
						"node":17,
						"path":"rotation"
					}
				},
				{
					"sampler":2,
					"target":{
						"node":17,
						"path":"scale"
					}
				},
				{
					"sampler":3,
					"target":{
						"node":2,
						"path":"translation"
					}
				},
				{
					"sampler":4,
					"target":{
						"node":2,
						"path":"rotation"
					}
				},
				{
					"sampler":5,
					"target":{
						"node":2,
						"path":"scale"
					}
				},
				{
					"sampler":6,
					"target":{
						"node":1,
						"path":"translation"
					}
				},
				{
					"sampler":7,
					"target":{
						"node":1,
						"path":"rotation"
					}
				},
				{
					"sampler":8,
					"target":{
						"node":1,
						"path":"scale"
					}
				},
				{
					"sampler":9,
					"target":{
						"node":0,
						"path":"translation"
					}
				},
				{
					"sampler":10,
					"target":{
						"node":0,
						"path":"rotation"
					}
				},
				{
					"sampler":11,
					"target":{
						"node":0,
						"path":"scale"
					}
				},
				{
					"sampler":12,
					"target":{
						"node":6,
						"path":"translation"
					}
				},
				{
					"sampler":13,
					"target":{
						"node":6,
						"path":"rotation"
					}
				},
				{
					"sampler":14,
					"target":{
						"node":6,
						"path":"scale"
					}
				},
				{
					"sampler":15,
					"target":{
						"node":5,
						"path":"translation"
					}
				},
				{
					"sampler":16,
					"target":{
						"node":5,
						"path":"rotation"
					}
				},
				{
					"sampler":17,
					"target":{
						"node":5,
						"path":"scale"
					}
				},
				{
					"sampler":18,
					"target":{
						"node":4,
						"path":"translation"
					}
				},
				{
					"sampler":19,
					"target":{
						"node":4,
						"path":"rotation"
					}
				},
				{
					"sampler":20,
					"target":{
						"node":4,
						"path":"scale"
					}
				},
				{
					"sampler":21,
					"target":{
						"node":3,
						"path":"translation"
					}
				},
				{
					"sampler":22,
					"target":{
						"node":3,
						"path":"rotation"
					}
				},
				{
					"sampler":23,
					"target":{
						"node":3,
						"path":"scale"
					}
				},
				{
					"sampler":24,
					"target":{
						"node":16,
						"path":"translation"
					}
				},
				{
					"sampler":25,
					"target":{
						"node":16,
						"path":"rotation"
					}
				},
				{
					"sampler":26,
					"target":{
						"node":16,
						"path":"scale"
					}
				},
				{
					"sampler":27,
					"target":{
						"node":7,
						"path":"translation"
					}
				},
				{
					"sampler":28,
					"target":{
						"node":7,
						"path":"rotation"
					}
				},
				{
					"sampler":29,
					"target":{
						"node":7,
						"path":"scale"
					}
				},
				{
					"sampler":30,
					"target":{
						"node":11,
						"path":"translation"
					}
				},
				{
					"sampler":31,
					"target":{
						"node":11,
						"path":"rotation"
					}
				},
				{
					"sampler":32,
					"target":{
						"node":11,
						"path":"scale"
					}
				},
				{
					"sampler":33,
					"target":{
						"node":10,
						"path":"translation"
					}
				},
				{
					"sampler":34,
					"target":{
						"node":10,
						"path":"rotation"
					}
				},
				{
					"sampler":35,
					"target":{
						"node":10,
						"path":"scale"
					}
				},
				{
					"sampler":36,
					"target":{
						"node":9,
						"path":"translation"
					}
				},
				{
					"sampler":37,
					"target":{
						"node":9,
						"path":"rotation"
					}
				},
				{
					"sampler":38,
					"target":{
						"node":9,
						"path":"scale"
					}
				},
				{
					"sampler":39,
					"target":{
						"node":8,
						"path":"translation"
					}
				},
				{
					"sampler":40,
					"target":{
						"node":8,
						"path":"rotation"
					}
				},
				{
					"sampler":41,
					"target":{
						"node":8,
						"path":"scale"
					}
				},
				{
					"sampler":42,
					"target":{
						"node":15,
						"path":"translation"
					}
				},
				{
					"sampler":43,
					"target":{
						"node":15,
						"path":"rotation"
					}
				},
				{
					"sampler":44,
					"target":{
						"node":15,
						"path":"scale"
					}
				},
				{
					"sampler":45,
					"target":{
						"node":14,
						"path":"translation"
					}
				},
				{
					"sampler":46,
					"target":{
						"node":14,
						"path":"rotation"
					}
				},
				{
					"sampler":47,
					"target":{
						"node":14,
						"path":"scale"
					}
				},
				{
					"sampler":48,
					"target":{
						"node":13,
						"path":"translation"
					}
				},
				{
					"sampler":49,
					"target":{
						"node":13,
						"path":"rotation"
					}
				},
				{
					"sampler":50,
					"target":{
						"node":13,
						"path":"scale"
					}
				},
				{
					"sampler":51,
					"target":{
						"node":12,
						"path":"translation"
					}
				},
				{
					"sampler":52,
					"target":{
						"node":12,
						"path":"rotation"
					}
				},
				{
					"sampler":53,
					"target":{
						"node":12,
						"path":"scale"
					}
				}
			],
			"name":"Idle",
			"samplers":[
				{
					"input":119,
					"interpolation":"STEP",
					"output":120
				},
				{
					"input":119,
					"interpolation":"STEP",
					"output":121
				},
				{
					"input":119,
					"interpolation":"STEP",
					"output":12
				},
				{
					"input":119,
					"interpolation":"STEP",
					"output":122
				},
				{
					"input":119,
					"interpolation":"STEP",
					"output":123
				},
				{
					"input":119,
					"interpolation":"STEP",
					"output":15
				},
				{
					"input":119,
					"interpolation":"STEP",
					"output":124
				},
				{
					"input":125,
					"interpolation":"LINEAR",
					"output":126
				},
				{
					"input":119,
					"interpolation":"STEP",
					"output":127
				},
				{
					"input":119,
					"interpolation":"STEP",
					"output":128
				},
				{
					"input":125,
					"interpolation":"LINEAR",
					"output":129
				},
				{
					"input":119,
					"interpolation":"STEP",
					"output":130
				},
				{
					"input":119,
					"interpolation":"STEP",
					"output":131
				},
				{
					"input":119,
					"interpolation":"STEP",
					"output":132
				},
				{
					"input":119,
					"interpolation":"STEP",
					"output":25
				},
				{
					"input":119,
					"interpolation":"STEP",
					"output":133
				},
				{
					"input":125,
					"interpolation":"LINEAR",
					"output":134
				},
				{
					"input":119,
					"interpolation":"STEP",
					"output":135
				},
				{
					"input":119,
					"interpolation":"STEP",
					"output":136
				},
				{
					"input":125,
					"interpolation":"LINEAR",
					"output":137
				},
				{
					"input":119,
					"interpolation":"STEP",
					"output":138
				},
				{
					"input":119,
					"interpolation":"STEP",
					"output":139
				},
				{
					"input":125,
					"interpolation":"LINEAR",
					"output":140
				},
				{
					"input":119,
					"interpolation":"STEP",
					"output":141
				},
				{
					"input":119,
					"interpolation":"STEP",
					"output":142
				},
				{
					"input":125,
					"interpolation":"LINEAR",
					"output":143
				},
				{
					"input":119,
					"interpolation":"STEP",
					"output":91
				},
				{
					"input":119,
					"interpolation":"STEP",
					"output":144
				},
				{
					"input":125,
					"interpolation":"LINEAR",
					"output":145
				},
				{
					"input":119,
					"interpolation":"STEP",
					"output":146
				},
				{
					"input":119,
					"interpolation":"STEP",
					"output":147
				},
				{
					"input":125,
					"interpolation":"LINEAR",
					"output":148
				},
				{
					"input":119,
					"interpolation":"STEP",
					"output":149
				},
				{
					"input":119,
					"interpolation":"STEP",
					"output":150
				},
				{
					"input":125,
					"interpolation":"LINEAR",
					"output":151
				},
				{
					"input":119,
					"interpolation":"STEP",
					"output":152
				},
				{
					"input":119,
					"interpolation":"STEP",
					"output":153
				},
				{
					"input":125,
					"interpolation":"LINEAR",
					"output":154
				},
				{
					"input":119,
					"interpolation":"STEP",
					"output":155
				},
				{
					"input":119,
					"interpolation":"STEP",
					"output":156
				},
				{
					"input":125,
					"interpolation":"LINEAR",
					"output":157
				},
				{
					"input":119,
					"interpolation":"STEP",
					"output":91
				},
				{
					"input":119,
					"interpolation":"STEP",
					"output":158
				},
				{
					"input":125,
					"interpolation":"LINEAR",
					"output":159
				},
				{
					"input":119,
					"interpolation":"STEP",
					"output":160
				},
				{
					"input":119,
					"interpolation":"STEP",
					"output":161
				},
				{
					"input":125,
					"interpolation":"LINEAR",
					"output":162
				},
				{
					"input":119,
					"interpolation":"STEP",
					"output":163
				},
				{
					"input":119,
					"interpolation":"STEP",
					"output":164
				},
				{
					"input":125,
					"interpolation":"LINEAR",
					"output":165
				},
				{
					"input":119,
					"interpolation":"STEP",
					"output":166
				},
				{
					"input":119,
					"interpolation":"STEP",
					"output":167
				},
				{
					"input":125,
					"interpolation":"LINEAR",
					"output":168
				},
				{
					"input":119,
					"interpolation":"STEP",
					"output":169
				}
			]
		}
	],
	"materials":[
		{
			"doubleSided":true,
			"name":"Material.001",
			"pbrMetallicRoughness":{
				"baseColorTexture":{
					"index":0
				},
				"metallicFactor":0,
				"roughnessFactor":0.5
			}
		}
	],
	"meshes":[
		{
			"name":"Cube.001",
			"primitives":[
				{
					"attributes":{
						"POSITION":0,
						"NORMAL":1,
						"TEXCOORD_0":2,
						"COLOR_0":3,
						"COLOR_1":4,
						"JOINTS_0":5,
						"WEIGHTS_0":6
					},
					"indices":7,
					"material":0
				}
			]
		}
	],
	"textures":[
		{
			"sampler":0,
			"source":0
		}
	],
	"images":[
		{
			"mimeType":"image/png",
			"name":"WizardTexture",
			"uri":"WizardTexture.png"
		}
	],
	"skins":[
		{
			"inverseBindMatrices":8,
			"joints":[
				17,
				2,
				1,
				0,
				6,
				5,
				4,
				3,
				16,
				7,
				11,
				10,
				9,
				8,
				15,
				14,
				13,
				12
			],
			"name":"Armature"
		}
	],
	"accessors":[
		{
			"bufferView":0,
			"componentType":5126,
			"count":6399,
			"max":[
				1.1126943826675415,
				2.1663036346435547,
				0.3075798749923706
			],
			"min":[
				-1.1286715269088745,
				-4.6492437832057476e-05,
				-0.3075798749923706
			],
			"type":"VEC3"
		},
		{
			"bufferView":1,
			"componentType":5126,
			"count":6399,
			"type":"VEC3"
		},
		{
			"bufferView":2,
			"componentType":5126,
			"count":6399,
			"type":"VEC2"
		},
		{
			"bufferView":3,
			"componentType":5121,
			"count":6399,
			"normalized":true,
			"type":"VEC4"
		},
		{
			"bufferView":4,
			"componentType":5123,
			"count":6399,
			"normalized":true,
			"type":"VEC4"
		},
		{
			"bufferView":5,
			"componentType":5121,
			"count":6399,
			"type":"VEC4"
		},
		{
			"bufferView":6,
			"componentType":5126,
			"count":6399,
			"type":"VEC4"
		},
		{
			"bufferView":7,
			"componentType":5123,
			"count":11538,
			"type":"SCALAR"
		},
		{
			"bufferView":8,
			"componentType":5126,
			"count":18,
			"type":"MAT4"
		},
		{
			"bufferView":9,
			"componentType":5126,
			"count":2,
			"max":[
				2.2
			],
			"min":[
				0.03333333333333333
			],
			"type":"SCALAR"
		},
		{
			"bufferView":10,
			"componentType":5126,
			"count":2,
			"type":"VEC3"
		},
		{
			"bufferView":11,
			"componentType":5126,
			"count":2,
			"type":"VEC4"
		},
		{
			"bufferView":12,
			"componentType":5126,
			"count":2,
			"type":"VEC3"
		},
		{
			"bufferView":13,
			"componentType":5126,
			"count":2,
			"type":"VEC3"
		},
		{
			"bufferView":14,
			"componentType":5126,
			"count":2,
			"type":"VEC4"
		},
		{
			"bufferView":15,
			"componentType":5126,
			"count":2,
			"type":"VEC3"
		},
		{
			"bufferView":16,
			"componentType":5126,
			"count":2,
			"type":"VEC3"
		},
		{
			"bufferView":17,
			"componentType":5126,
			"count":66,
			"max":[
				2.2
			],
			"min":[
				0.03333333333333333
			],
			"type":"SCALAR"
		},
		{
			"bufferView":18,
			"componentType":5126,
			"count":66,
			"type":"VEC4"
		},
		{
			"bufferView":19,
			"componentType":5126,
			"count":2,
			"type":"VEC3"
		},
		{
			"bufferView":20,
			"componentType":5126,
			"count":2,
			"type":"VEC3"
		},
		{
			"bufferView":21,
			"componentType":5126,
			"count":66,
			"type":"VEC4"
		},
		{
			"bufferView":22,
			"componentType":5126,
			"count":2,
			"type":"VEC3"
		},
		{
			"bufferView":23,
			"componentType":5126,
			"count":2,
			"type":"VEC3"
		},
		{
			"bufferView":24,
			"componentType":5126,
			"count":2,
			"type":"VEC4"
		},
		{
			"bufferView":25,
			"componentType":5126,
			"count":2,
			"type":"VEC3"
		},
		{
			"bufferView":26,
			"componentType":5126,
			"count":2,
			"type":"VEC3"
		},
		{
			"bufferView":27,
			"componentType":5126,
			"count":66,
			"type":"VEC4"
		},
		{
			"bufferView":28,
			"componentType":5126,
			"count":2,
			"type":"VEC3"
		},
		{
			"bufferView":29,
			"componentType":5126,
			"count":2,
			"type":"VEC3"
		},
		{
			"bufferView":30,
			"componentType":5126,
			"count":66,
			"type":"VEC4"
		},
		{
			"bufferView":31,
			"componentType":5126,
			"count":2,
			"type":"VEC3"
		},
		{
			"bufferView":32,
			"componentType":5126,
			"count":2,
			"type":"VEC3"
		},
		{
			"bufferView":33,
			"componentType":5126,
			"count":66,
			"type":"VEC4"
		},
		{
			"bufferView":34,
			"componentType":5126,
			"count":2,
			"type":"VEC3"
		},
		{
			"bufferView":35,
			"componentType":5126,
			"count":2,
			"type":"VEC3"
		},
		{
			"bufferView":36,
			"componentType":5126,
			"count":66,
			"type":"VEC4"
		},
		{
			"bufferView":37,
			"componentType":5126,
			"count":2,
			"type":"VEC3"
		},
		{
			"bufferView":38,
			"componentType":5126,
			"count":2,
			"type":"VEC3"
		},
		{
			"bufferView":39,
			"componentType":5126,
			"count":66,
			"type":"VEC4"
		},
		{
			"bufferView":40,
			"componentType":5126,
			"count":2,
			"type":"VEC3"
		},
		{
			"bufferView":41,
			"componentType":5126,
			"count":2,
			"type":"VEC3"
		},
		{
			"bufferView":42,
			"componentType":5126,
			"count":66,
			"type":"VEC4"
		},
		{
			"bufferView":43,
			"componentType":5126,
			"count":2,
			"type":"VEC3"
		},
		{
			"bufferView":44,
			"componentType":5126,
			"count":2,
			"type":"VEC3"
		},
		{
			"bufferView":45,
			"componentType":5126,
			"count":66,
			"type":"VEC4"
		},
		{
			"bufferView":46,
			"componentType":5126,
			"count":2,
			"type":"VEC3"
		},
		{
			"bufferView":47,
			"componentType":5126,
			"count":2,
			"type":"VEC3"
		},
		{
			"bufferView":48,
			"componentType":5126,
			"count":66,
			"type":"VEC4"
		},
		{
			"bufferView":49,
			"componentType":5126,
			"count":2,
			"type":"VEC3"
		},
		{
			"bufferView":50,
			"componentType":5126,
			"count":2,
			"type":"VEC3"
		},
		{
			"bufferView":51,
			"componentType":5126,
			"count":66,
			"type":"VEC4"
		},
		{
			"bufferView":52,
			"componentType":5126,
			"count":2,
			"type":"VEC3"
		},
		{
			"bufferView":53,
			"componentType":5126,
			"count":2,
			"type":"VEC3"
		},
		{
			"bufferView":54,
			"componentType":5126,
			"count":66,
			"type":"VEC4"
		},
		{
			"bufferView":55,
			"componentType":5126,
			"count":2,
			"type":"VEC3"
		},
		{
			"bufferView":56,
			"componentType":5126,
			"count":66,
			"type":"VEC4"
		},
		{
			"bufferView":57,
			"componentType":5126,
			"count":2,
			"type":"VEC3"
		},
		{
			"bufferView":58,
			"componentType":5126,
			"count":2,
			"type":"VEC3"
		},
		{
			"bufferView":59,
			"componentType":5126,
			"count":66,
			"type":"VEC4"
		},
		{
			"bufferView":60,
			"componentType":5126,
			"count":2,
			"type":"VEC3"
		},
		{
			"bufferView":61,
			"componentType":5126,
			"count":2,
			"type":"VEC3"
		},
		{
			"bufferView":62,
			"componentType":5126,
			"count":66,
			"type":"VEC4"
		},
		{
			"bufferView":63,
			"componentType":5126,
			"count":2,
			"type":"VEC3"
		},
		{
			"bufferView":64,
			"componentType":5126,
			"count":66,
			"type":"VEC3"
		},
		{
			"bufferView":65,
			"componentType":5126,
			"count":2,
			"max":[
				1.0666666666666667
			],
			"min":[
				0.03333333333333333
			],
			"type":"SCALAR"
		},
		{
			"bufferView":66,
			"componentType":5126,
			"count":2,
			"type":"VEC3"
		},
		{
			"bufferView":67,
			"componentType":5126,
			"count":2,
			"type":"VEC4"
		},
		{
			"bufferView":68,
			"componentType":5126,
			"count":2,
			"type":"VEC3"
		},
		{
			"bufferView":69,
			"componentType":5126,
			"count":2,
			"type":"VEC4"
		},
		{
			"bufferView":70,
			"componentType":5126,
			"count":2,
			"type":"VEC3"
		},
		{
			"bufferView":71,
			"componentType":5126,
			"count":32,
			"max":[
				1.0666666666666667
			],
			"min":[
				0.03333333333333333
			],
			"type":"SCALAR"
		},
		{
			"bufferView":72,
			"componentType":5126,
			"count":32,
			"type":"VEC4"
		},
		{
			"bufferView":73,
			"componentType":5126,
			"count":2,
			"type":"VEC3"
		},
		{
			"bufferView":74,
			"componentType":5126,
			"count":2,
			"type":"VEC3"
		},
		{
			"bufferView":75,
			"componentType":5126,
			"count":32,
			"type":"VEC4"
		},
		{
			"bufferView":76,
			"componentType":5126,
			"count":2,
			"type":"VEC3"
		},
		{
			"bufferView":77,
			"componentType":5126,
			"count":2,
			"type":"VEC3"
		},
		{
			"bufferView":78,
			"componentType":5126,
			"count":2,
			"type":"VEC4"
		},
		{
			"bufferView":79,
			"componentType":5126,
			"count":2,
			"type":"VEC3"
		},
		{
			"bufferView":80,
			"componentType":5126,
			"count":2,
			"type":"VEC3"
		},
		{
			"bufferView":81,
			"componentType":5126,
			"count":32,
			"type":"VEC4"
		},
		{
			"bufferView":82,
			"componentType":5126,
			"count":2,
			"type":"VEC3"
		},
		{
			"bufferView":83,
			"componentType":5126,
			"count":2,
			"type":"VEC3"
		},
		{
			"bufferView":84,
			"componentType":5126,
			"count":32,
			"type":"VEC4"
		},
		{
			"bufferView":85,
			"componentType":5126,
			"count":2,
			"type":"VEC3"
		},
		{
			"bufferView":86,
			"componentType":5126,
			"count":2,
			"type":"VEC3"
		},
		{
			"bufferView":87,
			"componentType":5126,
			"count":32,
			"type":"VEC4"
		},
		{
			"bufferView":88,
			"componentType":5126,
			"count":2,
			"type":"VEC3"
		},
		{
			"bufferView":89,
			"componentType":5126,
			"count":2,
			"type":"VEC3"
		},
		{
			"bufferView":90,
			"componentType":5126,
			"count":32,
			"type":"VEC4"
		},
		{
			"bufferView":91,
			"componentType":5126,
			"count":2,
			"type":"VEC3"
		},
		{
			"bufferView":92,
			"componentType":5126,
			"count":2,
			"type":"VEC3"
		},
		{
			"bufferView":93,
			"componentType":5126,
			"count":32,
			"type":"VEC4"
		},
		{
			"bufferView":94,
			"componentType":5126,
			"count":2,
			"type":"VEC3"
		},
		{
			"bufferView":95,
			"componentType":5126,
			"count":2,
			"type":"VEC3"
		},
		{
			"bufferView":96,
			"componentType":5126,
			"count":32,
			"type":"VEC4"
		},
		{
			"bufferView":97,
			"componentType":5126,
			"count":2,
			"type":"VEC3"
		},
		{
			"bufferView":98,
			"componentType":5126,
			"count":2,
			"type":"VEC3"
		},
		{
			"bufferView":99,
			"componentType":5126,
			"count":32,
			"type":"VEC4"
		},
		{
			"bufferView":100,
			"componentType":5126,
			"count":2,
			"type":"VEC3"
		},
		{
			"bufferView":101,
			"componentType":5126,
			"count":2,
			"type":"VEC3"
		},
		{
			"bufferView":102,
			"componentType":5126,
			"count":32,
			"type":"VEC4"
		},
		{
			"bufferView":103,
			"componentType":5126,
			"count":2,
			"type":"VEC3"
		},
		{
			"bufferView":104,
			"componentType":5126,
			"count":2,
			"type":"VEC3"
		},
		{
			"bufferView":105,
			"componentType":5126,
			"count":32,
			"type":"VEC4"
		},
		{
			"bufferView":106,
			"componentType":5126,
			"count":2,
			"type":"VEC3"
		},
		{
			"bufferView":107,
			"componentType":5126,
			"count":2,
			"type":"VEC3"
		},
		{
			"bufferView":108,
			"componentType":5126,
			"count":32,
			"type":"VEC4"
		},
		{
			"bufferView":109,
			"componentType":5126,
			"count":2,
			"type":"VEC3"
		},
		{
			"bufferView":110,
			"componentType":5126,
			"count":2,
			"type":"VEC3"
		},
		{
			"bufferView":111,
			"componentType":5126,
			"count":32,
			"type":"VEC4"
		},
		{
			"bufferView":112,
			"componentType":5126,
			"count":2,
			"type":"VEC3"
		},
		{
			"bufferView":113,
			"componentType":5126,
			"count":2,
			"type":"VEC3"
		},
		{
			"bufferView":114,
			"componentType":5126,
			"count":32,
			"type":"VEC4"
		},
		{
			"bufferView":115,
			"componentType":5126,
			"count":2,
			"type":"VEC3"
		},
		{
			"bufferView":116,
			"componentType":5126,
			"count":2,
			"type":"VEC3"
		},
		{
			"bufferView":117,
			"componentType":5126,
			"count":32,
			"type":"VEC4"
		},
		{
			"bufferView":118,
			"componentType":5126,
			"count":2,
			"type":"VEC3"
		},
		{
			"bufferView":119,
			"componentType":5126,
			"count":2,
			"max":[
				2.033333333333333
			],
			"min":[
				0.03333333333333333
			],
			"type":"SCALAR"
		},
		{
			"bufferView":120,
			"componentType":5126,
			"count":2,
			"type":"VEC3"
		},
		{
			"bufferView":121,
			"componentType":5126,
			"count":2,
			"type":"VEC4"
		},
		{
			"bufferView":122,
			"componentType":5126,
			"count":2,
			"type":"VEC3"
		},
		{
			"bufferView":123,
			"componentType":5126,
			"count":2,
			"type":"VEC4"
		},
		{
			"bufferView":124,
			"componentType":5126,
			"count":2,
			"type":"VEC3"
		},
		{
			"bufferView":125,
			"componentType":5126,
			"count":61,
			"max":[
				2.033333333333333
			],
			"min":[
				0.03333333333333333
			],
			"type":"SCALAR"
		},
		{
			"bufferView":126,
			"componentType":5126,
			"count":61,
			"type":"VEC4"
		},
		{
			"bufferView":127,
			"componentType":5126,
			"count":2,
			"type":"VEC3"
		},
		{
			"bufferView":128,
			"componentType":5126,
			"count":2,
			"type":"VEC3"
		},
		{
			"bufferView":129,
			"componentType":5126,
			"count":61,
			"type":"VEC4"
		},
		{
			"bufferView":130,
			"componentType":5126,
			"count":2,
			"type":"VEC3"
		},
		{
			"bufferView":131,
			"componentType":5126,
			"count":2,
			"type":"VEC3"
		},
		{
			"bufferView":132,
			"componentType":5126,
			"count":2,
			"type":"VEC4"
		},
		{
			"bufferView":133,
			"componentType":5126,
			"count":2,
			"type":"VEC3"
		},
		{
			"bufferView":134,
			"componentType":5126,
			"count":61,
			"type":"VEC4"
		},
		{
			"bufferView":135,
			"componentType":5126,
			"count":2,
			"type":"VEC3"
		},
		{
			"bufferView":136,
			"componentType":5126,
			"count":2,
			"type":"VEC3"
		},
		{
			"bufferView":137,
			"componentType":5126,
			"count":61,
			"type":"VEC4"
		},
		{
			"bufferView":138,
			"componentType":5126,
			"count":2,
			"type":"VEC3"
		},
		{
			"bufferView":139,
			"componentType":5126,
			"count":2,
			"type":"VEC3"
		},
		{
			"bufferView":140,
			"componentType":5126,
			"count":61,
			"type":"VEC4"
		},
		{
			"bufferView":141,
			"componentType":5126,
			"count":2,
			"type":"VEC3"
		},
		{
			"bufferView":142,
			"componentType":5126,
			"count":2,
			"type":"VEC3"
		},
		{
			"bufferView":143,
			"componentType":5126,
			"count":61,
			"type":"VEC4"
		},
		{
			"bufferView":144,
			"componentType":5126,
			"count":2,
			"type":"VEC3"
		},
		{
			"bufferView":145,
			"componentType":5126,
			"count":61,
			"type":"VEC4"
		},
		{
			"bufferView":146,
			"componentType":5126,
			"count":2,
			"type":"VEC3"
		},
		{
			"bufferView":147,
			"componentType":5126,
			"count":2,
			"type":"VEC3"
		},
		{
			"bufferView":148,
			"componentType":5126,
			"count":61,
			"type":"VEC4"
		},
		{
			"bufferView":149,
			"componentType":5126,
			"count":2,
			"type":"VEC3"
		},
		{
			"bufferView":150,
			"componentType":5126,
			"count":2,
			"type":"VEC3"
		},
		{
			"bufferView":151,
			"componentType":5126,
			"count":61,
			"type":"VEC4"
		},
		{
			"bufferView":152,
			"componentType":5126,
			"count":2,
			"type":"VEC3"
		},
		{
			"bufferView":153,
			"componentType":5126,
			"count":2,
			"type":"VEC3"
		},
		{
			"bufferView":154,
			"componentType":5126,
			"count":61,
			"type":"VEC4"
		},
		{
			"bufferView":155,
			"componentType":5126,
			"count":2,
			"type":"VEC3"
		},
		{
			"bufferView":156,
			"componentType":5126,
			"count":2,
			"type":"VEC3"
		},
		{
			"bufferView":157,
			"componentType":5126,
			"count":61,
			"type":"VEC4"
		},
		{
			"bufferView":158,
			"componentType":5126,
			"count":2,
			"type":"VEC3"
		},
		{
			"bufferView":159,
			"componentType":5126,
			"count":61,
			"type":"VEC4"
		},
		{
			"bufferView":160,
			"componentType":5126,
			"count":2,
			"type":"VEC3"
		},
		{
			"bufferView":161,
			"componentType":5126,
			"count":2,
			"type":"VEC3"
		},
		{
			"bufferView":162,
			"componentType":5126,
			"count":61,
			"type":"VEC4"
		},
		{
			"bufferView":163,
			"componentType":5126,
			"count":2,
			"type":"VEC3"
		},
		{
			"bufferView":164,
			"componentType":5126,
			"count":2,
			"type":"VEC3"
		},
		{
			"bufferView":165,
			"componentType":5126,
			"count":61,
			"type":"VEC4"
		},
		{
			"bufferView":166,
			"componentType":5126,
			"count":2,
			"type":"VEC3"
		},
		{
			"bufferView":167,
			"componentType":5126,
			"count":2,
			"type":"VEC3"
		},
		{
			"bufferView":168,
			"componentType":5126,
			"count":61,
			"type":"VEC4"
		},
		{
			"bufferView":169,
			"componentType":5126,
			"count":2,
			"type":"VEC3"
		}
	],
	"bufferViews":[
		{
			"buffer":0,
			"byteLength":76788,
			"byteOffset":0,
			"target":34962
		},
		{
			"buffer":0,
			"byteLength":76788,
			"byteOffset":76788,
			"target":34962
		},
		{
			"buffer":0,
			"byteLength":51192,
			"byteOffset":153576,
			"target":34962
		},
		{
			"buffer":0,
			"byteLength":25596,
			"byteOffset":204768,
			"target":34962
		},
		{
			"buffer":0,
			"byteLength":51192,
			"byteOffset":230364,
			"target":34962
		},
		{
			"buffer":0,
			"byteLength":25596,
			"byteOffset":281556,
			"target":34962
		},
		{
			"buffer":0,
			"byteLength":102384,
			"byteOffset":307152,
			"target":34962
		},
		{
			"buffer":0,
			"byteLength":23076,
			"byteOffset":409536,
			"target":34963
		},
		{
			"buffer":0,
			"byteLength":1152,
			"byteOffset":432612
		},
		{
			"buffer":0,
			"byteLength":8,
			"byteOffset":433764
		},
		{
			"buffer":0,
			"byteLength":24,
			"byteOffset":433772
		},
		{
			"buffer":0,
			"byteLength":32,
			"byteOffset":433796
		},
		{
			"buffer":0,
			"byteLength":24,
			"byteOffset":433828
		},
		{
			"buffer":0,
			"byteLength":24,
			"byteOffset":433852
		},
		{
			"buffer":0,
			"byteLength":32,
			"byteOffset":433876
		},
		{
			"buffer":0,
			"byteLength":24,
			"byteOffset":433908
		},
		{
			"buffer":0,
			"byteLength":24,
			"byteOffset":433932
		},
		{
			"buffer":0,
			"byteLength":264,
			"byteOffset":433956
		},
		{
			"buffer":0,
			"byteLength":1056,
			"byteOffset":434220
		},
		{
			"buffer":0,
			"byteLength":24,
			"byteOffset":435276
		},
		{
			"buffer":0,
			"byteLength":24,
			"byteOffset":435300
		},
		{
			"buffer":0,
			"byteLength":1056,
			"byteOffset":435324
		},
		{
			"buffer":0,
			"byteLength":24,
			"byteOffset":436380
		},
		{
			"buffer":0,
			"byteLength":24,
			"byteOffset":436404
		},
		{
			"buffer":0,
			"byteLength":32,
			"byteOffset":436428
		},
		{
			"buffer":0,
			"byteLength":24,
			"byteOffset":436460
		},
		{
			"buffer":0,
			"byteLength":24,
			"byteOffset":436484
		},
		{
			"buffer":0,
			"byteLength":1056,
			"byteOffset":436508
		},
		{
			"buffer":0,
			"byteLength":24,
			"byteOffset":437564
		},
		{
			"buffer":0,
			"byteLength":24,
			"byteOffset":437588
		},
		{
			"buffer":0,
			"byteLength":1056,
			"byteOffset":437612
		},
		{
			"buffer":0,
			"byteLength":24,
			"byteOffset":438668
		},
		{
			"buffer":0,
			"byteLength":24,
			"byteOffset":438692
		},
		{
			"buffer":0,
			"byteLength":1056,
			"byteOffset":438716
		},
		{
			"buffer":0,
			"byteLength":24,
			"byteOffset":439772
		},
		{
			"buffer":0,
			"byteLength":24,
			"byteOffset":439796
		},
		{
			"buffer":0,
			"byteLength":1056,
			"byteOffset":439820
		},
		{
			"buffer":0,
			"byteLength":24,
			"byteOffset":440876
		},
		{
			"buffer":0,
			"byteLength":24,
			"byteOffset":440900
		},
		{
			"buffer":0,
			"byteLength":1056,
			"byteOffset":440924
		},
		{
			"buffer":0,
			"byteLength":24,
			"byteOffset":441980
		},
		{
			"buffer":0,
			"byteLength":24,
			"byteOffset":442004
		},
		{
			"buffer":0,
			"byteLength":1056,
			"byteOffset":442028
		},
		{
			"buffer":0,
			"byteLength":24,
			"byteOffset":443084
		},
		{
			"buffer":0,
			"byteLength":24,
			"byteOffset":443108
		},
		{
			"buffer":0,
			"byteLength":1056,
			"byteOffset":443132
		},
		{
			"buffer":0,
			"byteLength":24,
			"byteOffset":444188
		},
		{
			"buffer":0,
			"byteLength":24,
			"byteOffset":444212
		},
		{
			"buffer":0,
			"byteLength":1056,
			"byteOffset":444236
		},
		{
			"buffer":0,
			"byteLength":24,
			"byteOffset":445292
		},
		{
			"buffer":0,
			"byteLength":24,
			"byteOffset":445316
		},
		{
			"buffer":0,
			"byteLength":1056,
			"byteOffset":445340
		},
		{
			"buffer":0,
			"byteLength":24,
			"byteOffset":446396
		},
		{
			"buffer":0,
			"byteLength":24,
			"byteOffset":446420
		},
		{
			"buffer":0,
			"byteLength":1056,
			"byteOffset":446444
		},
		{
			"buffer":0,
			"byteLength":24,
			"byteOffset":447500
		},
		{
			"buffer":0,
			"byteLength":1056,
			"byteOffset":447524
		},
		{
			"buffer":0,
			"byteLength":24,
			"byteOffset":448580
		},
		{
			"buffer":0,
			"byteLength":24,
			"byteOffset":448604
		},
		{
			"buffer":0,
			"byteLength":1056,
			"byteOffset":448628
		},
		{
			"buffer":0,
			"byteLength":24,
			"byteOffset":449684
		},
		{
			"buffer":0,
			"byteLength":24,
			"byteOffset":449708
		},
		{
			"buffer":0,
			"byteLength":1056,
			"byteOffset":449732
		},
		{
			"buffer":0,
			"byteLength":24,
			"byteOffset":450788
		},
		{
			"buffer":0,
			"byteLength":792,
			"byteOffset":450812
		},
		{
			"buffer":0,
			"byteLength":8,
			"byteOffset":451604
		},
		{
			"buffer":0,
			"byteLength":24,
			"byteOffset":451612
		},
		{
			"buffer":0,
			"byteLength":32,
			"byteOffset":451636
		},
		{
			"buffer":0,
			"byteLength":24,
			"byteOffset":451668
		},
		{
			"buffer":0,
			"byteLength":32,
			"byteOffset":451692
		},
		{
			"buffer":0,
			"byteLength":24,
			"byteOffset":451724
		},
		{
			"buffer":0,
			"byteLength":128,
			"byteOffset":451748
		},
		{
			"buffer":0,
			"byteLength":512,
			"byteOffset":451876
		},
		{
			"buffer":0,
			"byteLength":24,
			"byteOffset":452388
		},
		{
			"buffer":0,
			"byteLength":24,
			"byteOffset":452412
		},
		{
			"buffer":0,
			"byteLength":512,
			"byteOffset":452436
		},
		{
			"buffer":0,
			"byteLength":24,
			"byteOffset":452948
		},
		{
			"buffer":0,
			"byteLength":24,
			"byteOffset":452972
		},
		{
			"buffer":0,
			"byteLength":32,
			"byteOffset":452996
		},
		{
			"buffer":0,
			"byteLength":24,
			"byteOffset":453028
		},
		{
			"buffer":0,
			"byteLength":24,
			"byteOffset":453052
		},
		{
			"buffer":0,
			"byteLength":512,
			"byteOffset":453076
		},
		{
			"buffer":0,
			"byteLength":24,
			"byteOffset":453588
		},
		{
			"buffer":0,
			"byteLength":24,
			"byteOffset":453612
		},
		{
			"buffer":0,
			"byteLength":512,
			"byteOffset":453636
		},
		{
			"buffer":0,
			"byteLength":24,
			"byteOffset":454148
		},
		{
			"buffer":0,
			"byteLength":24,
			"byteOffset":454172
		},
		{
			"buffer":0,
			"byteLength":512,
			"byteOffset":454196
		},
		{
			"buffer":0,
			"byteLength":24,
			"byteOffset":454708
		},
		{
			"buffer":0,
			"byteLength":24,
			"byteOffset":454732
		},
		{
			"buffer":0,
			"byteLength":512,
			"byteOffset":454756
		},
		{
			"buffer":0,
			"byteLength":24,
			"byteOffset":455268
		},
		{
			"buffer":0,
			"byteLength":24,
			"byteOffset":455292
		},
		{
			"buffer":0,
			"byteLength":512,
			"byteOffset":455316
		},
		{
			"buffer":0,
			"byteLength":24,
			"byteOffset":455828
		},
		{
			"buffer":0,
			"byteLength":24,
			"byteOffset":455852
		},
		{
			"buffer":0,
			"byteLength":512,
			"byteOffset":455876
		},
		{
			"buffer":0,
			"byteLength":24,
			"byteOffset":456388
		},
		{
			"buffer":0,
			"byteLength":24,
			"byteOffset":456412
		},
		{
			"buffer":0,
			"byteLength":512,
			"byteOffset":456436
		},
		{
			"buffer":0,
			"byteLength":24,
			"byteOffset":456948
		},
		{
			"buffer":0,
			"byteLength":24,
			"byteOffset":456972
		},
		{
			"buffer":0,
			"byteLength":512,
			"byteOffset":456996
		},
		{
			"buffer":0,
			"byteLength":24,
			"byteOffset":457508
		},
		{
			"buffer":0,
			"byteLength":24,
			"byteOffset":457532
		},
		{
			"buffer":0,
			"byteLength":512,
			"byteOffset":457556
		},
		{
			"buffer":0,
			"byteLength":24,
			"byteOffset":458068
		},
		{
			"buffer":0,
			"byteLength":24,
			"byteOffset":458092
		},
		{
			"buffer":0,
			"byteLength":512,
			"byteOffset":458116
		},
		{
			"buffer":0,
			"byteLength":24,
			"byteOffset":458628
		},
		{
			"buffer":0,
			"byteLength":24,
			"byteOffset":458652
		},
		{
			"buffer":0,
			"byteLength":512,
			"byteOffset":458676
		},
		{
			"buffer":0,
			"byteLength":24,
			"byteOffset":459188
		},
		{
			"buffer":0,
			"byteLength":24,
			"byteOffset":459212
		},
		{
			"buffer":0,
			"byteLength":512,
			"byteOffset":459236
		},
		{
			"buffer":0,
			"byteLength":24,
			"byteOffset":459748
		},
		{
			"buffer":0,
			"byteLength":24,
			"byteOffset":459772
		},
		{
			"buffer":0,
			"byteLength":512,
			"byteOffset":459796
		},
		{
			"buffer":0,
			"byteLength":24,
			"byteOffset":460308
		},
		{
			"buffer":0,
			"byteLength":8,
			"byteOffset":460332
		},
		{
			"buffer":0,
			"byteLength":24,
			"byteOffset":460340
		},
		{
			"buffer":0,
			"byteLength":32,
			"byteOffset":460364
		},
		{
			"buffer":0,
			"byteLength":24,
			"byteOffset":460396
		},
		{
			"buffer":0,
			"byteLength":32,
			"byteOffset":460420
		},
		{
			"buffer":0,
			"byteLength":24,
			"byteOffset":460452
		},
		{
			"buffer":0,
			"byteLength":244,
			"byteOffset":460476
		},
		{
			"buffer":0,
			"byteLength":976,
			"byteOffset":460720
		},
		{
			"buffer":0,
			"byteLength":24,
			"byteOffset":461696
		},
		{
			"buffer":0,
			"byteLength":24,
			"byteOffset":461720
		},
		{
			"buffer":0,
			"byteLength":976,
			"byteOffset":461744
		},
		{
			"buffer":0,
			"byteLength":24,
			"byteOffset":462720
		},
		{
			"buffer":0,
			"byteLength":24,
			"byteOffset":462744
		},
		{
			"buffer":0,
			"byteLength":32,
			"byteOffset":462768
		},
		{
			"buffer":0,
			"byteLength":24,
			"byteOffset":462800
		},
		{
			"buffer":0,
			"byteLength":976,
			"byteOffset":462824
		},
		{
			"buffer":0,
			"byteLength":24,
			"byteOffset":463800
		},
		{
			"buffer":0,
			"byteLength":24,
			"byteOffset":463824
		},
		{
			"buffer":0,
			"byteLength":976,
			"byteOffset":463848
		},
		{
			"buffer":0,
			"byteLength":24,
			"byteOffset":464824
		},
		{
			"buffer":0,
			"byteLength":24,
			"byteOffset":464848
		},
		{
			"buffer":0,
			"byteLength":976,
			"byteOffset":464872
		},
		{
			"buffer":0,
			"byteLength":24,
			"byteOffset":465848
		},
		{
			"buffer":0,
			"byteLength":24,
			"byteOffset":465872
		},
		{
			"buffer":0,
			"byteLength":976,
			"byteOffset":465896
		},
		{
			"buffer":0,
			"byteLength":24,
			"byteOffset":466872
		},
		{
			"buffer":0,
			"byteLength":976,
			"byteOffset":466896
		},
		{
			"buffer":0,
			"byteLength":24,
			"byteOffset":467872
		},
		{
			"buffer":0,
			"byteLength":24,
			"byteOffset":467896
		},
		{
			"buffer":0,
			"byteLength":976,
			"byteOffset":467920
		},
		{
			"buffer":0,
			"byteLength":24,
			"byteOffset":468896
		},
		{
			"buffer":0,
			"byteLength":24,
			"byteOffset":468920
		},
		{
			"buffer":0,
			"byteLength":976,
			"byteOffset":468944
		},
		{
			"buffer":0,
			"byteLength":24,
			"byteOffset":469920
		},
		{
			"buffer":0,
			"byteLength":24,
			"byteOffset":469944
		},
		{
			"buffer":0,
			"byteLength":976,
			"byteOffset":469968
		},
		{
			"buffer":0,
			"byteLength":24,
			"byteOffset":470944
		},
		{
			"buffer":0,
			"byteLength":24,
			"byteOffset":470968
		},
		{
			"buffer":0,
			"byteLength":976,
			"byteOffset":470992
		},
		{
			"buffer":0,
			"byteLength":24,
			"byteOffset":471968
		},
		{
			"buffer":0,
			"byteLength":976,
			"byteOffset":471992
		},
		{
			"buffer":0,
			"byteLength":24,
			"byteOffset":472968
		},
		{
			"buffer":0,
			"byteLength":24,
			"byteOffset":472992
		},
		{
			"buffer":0,
			"byteLength":976,
			"byteOffset":473016
		},
		{
			"buffer":0,
			"byteLength":24,
			"byteOffset":473992
		},
		{
			"buffer":0,
			"byteLength":24,
			"byteOffset":474016
		},
		{
			"buffer":0,
			"byteLength":976,
			"byteOffset":474040
		},
		{
			"buffer":0,
			"byteLength":24,
			"byteOffset":475016
		},
		{
			"buffer":0,
			"byteLength":24,
			"byteOffset":475040
		},
		{
			"buffer":0,
			"byteLength":976,
			"byteOffset":475064
		},
		{
			"buffer":0,
			"byteLength":24,
			"byteOffset":476040
		}
	],
	"samplers":[
		{
			"magFilter":9729,
			"minFilter":9987
		}
	],
	"buffers":[
		{
			"byteLength":476064,
			"uri":"Wizard.bin"
		}
	]
}
